<svg width="20" height="20" viewBox="0 0 20 20" fill="none" xmlns="http://www.w3.org/2000/svg">
<path fill-rule="evenodd" clip-rule="evenodd" d="M5.41667 8.33333V8.33333C3.80583 8.33333 2.5 7.0275 2.5 5.41667V5.41667C2.5 3.80583 3.80583 2.5 5.41667 2.5V2.5C7.0275 2.5 8.33333 3.80583 8.33333 5.41667V5.41667C8.33333 7.0275 7.0275 8.33333 5.41667 8.33333Z" stroke="#475467" stroke-width="1.25" stroke-linecap="round" stroke-linejoin="round"/>
<path fill-rule="evenodd" clip-rule="evenodd" d="M14.5833 8.33333V8.33333C12.9725 8.33333 11.6666 7.0275 11.6666 5.41667V5.41667C11.6666 3.80583 12.9725 2.5 14.5833 2.5V2.5C16.1941 2.5 17.5 3.80583 17.5 5.41667V5.41667C17.5 7.0275 16.1941 8.33333 14.5833 8.33333Z" stroke="#475467" stroke-width="1.25" stroke-linecap="round" stroke-linejoin="round"/>
<path fill-rule="evenodd" clip-rule="evenodd" d="M5.41667 17.5V17.5C3.80583 17.5 2.5 16.1941 2.5 14.5833V14.5833C2.5 12.9725 3.80583 11.6666 5.41667 11.6666V11.6666C7.0275 11.6666 8.33333 12.9725 8.33333 14.5833V14.5833C8.33333 16.1941 7.0275 17.5 5.41667 17.5Z" stroke="#475467" stroke-width="1.25" stroke-linecap="round" stroke-linejoin="round"/>
<path fill-rule="evenodd" clip-rule="evenodd" d="M17.5 14.5833V14.5833C17.5 12.9725 16.1941 11.6666 14.5833 11.6666V11.6666C12.9725 11.6666 11.6666 12.9725 11.6666 14.5833V14.5833C11.6666 16.1941 12.9725 17.5 14.5833 17.5V17.5C16.1941 17.5 17.5 16.1941 17.5 14.5833Z" stroke="#475467" stroke-width="1.25" stroke-linecap="round" stroke-linejoin="round"/>
</svg>
