<svg viewBox="0 0 388 605" fill="none" xmlns="http://www.w3.org/2000/svg">
    <path fill-rule="evenodd" clip-rule="evenodd" d="M153.265 361.206H19.9045C15.3842 361.206 11.0029 359.642 7.5042 356.78C-0.866896 349.931 -2.10117 337.593 4.7473 329.222L267.86 7.61116C272.9 1.45119 281.166 -1.04627 288.773 1.29296C299.111 4.47184 304.914 15.4295 301.735 25.7673L234.731 243.667H368.123C372.644 243.667 377.026 245.231 380.525 248.094C388.895 254.944 390.128 267.282 383.279 275.652L120.135 597.207C115.095 603.366 106.829 605.862 99.2222 603.523C88.8845 600.343 83.0822 589.385 86.2619 579.047L153.265 361.206Z" fill="#F3F3F4"/>
</svg>