<svg width="20" height="20" viewBox="0 0 20 20" fill="none" xmlns="http://www.w3.org/2000/svg">
<path d="M5.34518 8.82153C5.99605 9.4724 5.99605 10.5277 5.34518 11.1786C4.69431 11.8294 3.63903 11.8294 2.98816 11.1786C2.33728 10.5277 2.33728 9.4724 2.98816 8.82153C3.63903 8.17066 4.69431 8.17066 5.34518 8.82153" stroke="#98A2B3" stroke-width="1.25" stroke-linecap="round" stroke-linejoin="round"/>
<path d="M9.16663 4.16667H17.5" stroke="#98A2B3" stroke-width="1.25" stroke-linecap="round" stroke-linejoin="round"/>
<path d="M9.16663 10H17.5" stroke="#98A2B3" stroke-width="1.25" stroke-linecap="round" stroke-linejoin="round"/>
<path d="M9.16663 15.8333H17.5" stroke="#98A2B3" stroke-width="1.25" stroke-linecap="round" stroke-linejoin="round"/>
<path d="M5.34518 2.98816C5.99605 3.63903 5.99605 4.69431 5.34518 5.34518C4.69431 5.99605 3.63903 5.99605 2.98816 5.34518C2.33728 4.69431 2.33728 3.63903 2.98816 2.98816C3.63903 2.33728 4.69431 2.33728 5.34518 2.98816" stroke="#98A2B3" stroke-width="1.25" stroke-linecap="round" stroke-linejoin="round"/>
<path d="M5.34518 8.82153C5.99605 9.4724 5.99605 10.5277 5.34518 11.1786C4.69431 11.8294 3.63903 11.8294 2.98816 11.1786C2.33728 10.5277 2.33728 9.4724 2.98816 8.82153C3.63903 8.17066 4.69431 8.17066 5.34518 8.82153" stroke="#98A2B3" stroke-width="1.25" stroke-linecap="round" stroke-linejoin="round"/>
<path d="M5.34518 14.6548C5.99605 15.3057 5.99605 16.3609 5.34518 17.0118C4.69431 17.6627 3.63903 17.6627 2.98816 17.0118C2.33728 16.3609 2.33728 15.3057 2.98816 14.6548C3.63903 14.0039 4.69431 14.0039 5.34518 14.6548" stroke="#98A2B3" stroke-width="1.25" stroke-linecap="round" stroke-linejoin="round"/>
</svg>
