<svg width="48" height="48" viewBox="0 0 48 48" fill="none" xmlns="http://www.w3.org/2000/svg">
<rect x="0.5" y="0.5" width="47" height="47" rx="7.5" stroke="#EAECF0"/>
<path d="M20.1547 26.916C15.416 27.54 12 29.28 12 31.3333C12 33.9107 17.372 36 24 36C30.628 36 36 33.9107 36 31.3333C36 29.28 32.584 27.54 27.8453 26.916" stroke="#101828" stroke-width="2" stroke-linecap="round" stroke-linejoin="round"/>
<path fill-rule="evenodd" clip-rule="evenodd" d="M32 18.4441C32 14.1494 28.4187 10.6667 24 10.6667C19.5813 10.6667 16 14.1494 16 18.4441C16 24.2774 24 30.6667 24 30.6667C24 30.6667 32 24.2774 32 18.4441Z" stroke="#101828" stroke-width="2" stroke-linecap="round" stroke-linejoin="round"/>
<path d="M25.8856 16.781C26.927 17.8224 26.927 19.5109 25.8856 20.5523C24.8442 21.5937 23.1558 21.5937 22.1144 20.5523C21.073 19.5109 21.073 17.8224 22.1144 16.781C23.1558 15.7397 24.8442 15.7397 25.8856 16.781" stroke="#101828" stroke-width="2" stroke-linecap="round" stroke-linejoin="round"/>
</svg>
