<svg width="48" height="48" viewBox="0 0 48 48" fill="none" xmlns="http://www.w3.org/2000/svg">
<rect x="0.5" y="0.5" width="47" height="47" rx="7.5" stroke="#EAECF0"/>
<path d="M20.868 25.7947C23.7787 28.7067 27.4667 30.5627 29.66 28.3787L30.192 27.8467C30.9 27.1387 30.8014 25.9667 29.98 25.3947C29.4614 25.0334 28.904 24.6454 28.288 24.212C27.6507 23.764 26.776 23.832 26.2227 24.3814L25.6214 24.9787C24.876 24.5067 24.1387 23.9 23.4534 23.216L23.4507 23.2134C22.7667 22.5294 22.16 21.7907 21.688 21.0454L22.2854 20.444C22.8347 19.8907 22.904 19.0147 22.4534 18.3774C22.02 17.7627 21.632 17.2067 21.2734 16.6894C20.7027 15.8654 19.5294 15.7654 18.82 16.4747L18.288 17.0067C16.1054 19.2 17.96 22.8854 20.8707 25.7987" stroke="#101828" stroke-width="2" stroke-linecap="round" stroke-linejoin="round"/>
<path fill-rule="evenodd" clip-rule="evenodd" d="M26.6667 34.6667L24 37.3334L21.3333 34.6667H16C13.7907 34.6667 12 32.8761 12 30.6667V14.6667C12 12.4574 13.7907 10.6667 16 10.6667H32C34.2093 10.6667 36 12.4574 36 14.6667V30.6667C36 32.8761 34.2093 34.6667 32 34.6667H26.6667Z" stroke="#101828" stroke-width="2" stroke-linecap="round" stroke-linejoin="round"/>
</svg>
